# xmcd
#
# Track frame offsets:
#	150
#	8870
#	17320
#	30242
#	39680
#	48070
#	58267
#	68925
#	80097
#	87975
#
# Disc length: 1335 seconds
#
# Revision: 2
# Processed by: cddbd v1.4PL0 Copyright (c) Steve Scherf et al.
# Submitted via: dBpowerAMP V4.0
#
DISCID=7305350a
DTITLE=James (Elvis) Ellis - Orion - Holiday Tribute To The King
DYEAR=1997
DGENRE=Christmas
TTITLE0=Here Comes Canta Claus
TTITLE1=I'll Be Home For Christmas
TTITLE2=Oh Little Town Of Betlehem
TTITLE3=Blue Christmas
TTITLE4=Santa Bring My Baby Back To Me
TTITLE5=Holly Leaves And Christmas Trees
TTITLE6=Silent Night
TTITLE7=Santa Claus Is Back In Town
TTITLE8=Jingle Bells
TTITLE9=It Won't Seem Like Christmas Without You
EXTD=
EXTT0=
EXTT1=
EXTT2=
EXTT3=
EXTT4=
EXTT5=
EXTT6=
EXTT7=
EXTT8=
EXTT9=
PLAYORDER=
